<svg version="1.1" id="Layer_1" xmlns="http://www.w3.org/2000/svg" xmlns:xlink="http://www.w3.org/1999/xlink" x="0px" y="0px"
	 width="100%" viewBox="0 0 764 714" enable-background="new 0 0 764 714" xml:space="preserve">
<path fill="#FEFFFF" opacity="1.000000" stroke="none" 
	d="
M452.000000,715.000000 
	C301.333344,715.000000 151.166672,715.000000 1.000000,715.000000 
	C1.000000,477.000000 1.000000,239.000000 1.000000,1.000000 
	C255.666672,1.000000 510.333344,1.000000 765.000000,1.000000 
	C765.000000,239.000000 765.000000,477.000000 765.000000,715.000000 
	C660.833313,715.000000 556.666687,715.000000 452.000000,715.000000 
M533.500000,28.000462 
	C390.678528,28.000462 247.857025,27.982227 105.035599,28.070278 
	C99.589348,28.073635 94.001175,28.501646 88.721115,29.752895 
	C56.009163,37.504860 34.858185,64.404739 34.851841,98.127022 
	C34.819088,272.278656 34.834129,446.430267 34.855526,620.581909 
	C34.855934,623.907349 34.820320,627.283264 35.338825,630.550415 
	C41.045692,666.510010 68.774193,690.759827 105.082024,690.783020 
	C291.899139,690.902466 478.716431,690.907654 665.533508,690.783813 
	C706.169312,690.756897 735.998779,660.361206 735.999146,619.778442 
	C736.000671,445.960114 736.002197,272.141785 735.997925,98.323463 
	C735.996948,58.383816 705.748169,28.006466 665.988647,28.001671 
	C622.159119,27.996386 578.329529,28.000462 533.500000,28.000462 
z"/>
<path fill="#007B91" opacity="1.000000" stroke="none" 
	d="
M534.000000,28.000462 
	C578.329529,28.000462 622.159119,27.996386 665.988647,28.001671 
	C705.748169,28.006466 735.996948,58.383816 735.997925,98.323463 
	C736.002197,272.141785 736.000671,445.960114 735.999146,619.778442 
	C735.998779,660.361206 706.169312,690.756897 665.533508,690.783813 
	C478.716431,690.907654 291.899139,690.902466 105.082024,690.783020 
	C68.774193,690.759827 41.045692,666.510010 35.338825,630.550415 
	C34.820320,627.283264 34.855934,623.907349 34.855526,620.581909 
	C34.834129,446.430267 34.819088,272.278656 34.851841,98.127022 
	C34.858185,64.404739 56.009163,37.504860 88.721115,29.752895 
	C94.001175,28.501646 99.589348,28.073635 105.035599,28.070278 
	C247.857025,27.982227 390.678528,28.000462 534.000000,28.000462 
M248.662506,236.170334 
	C205.489609,282.374298 176.555939,336.744324 156.909302,396.407593 
	C142.520691,440.103180 134.334076,485.018646 131.292191,530.866150 
	C130.767731,538.770874 130.576324,547.013794 132.189499,554.688782 
	C138.681290,585.575012 174.811356,597.796509 197.996887,577.197937 
	C208.026443,568.287476 211.523987,556.362610 212.944656,543.371643 
	C215.330017,521.559448 217.178864,499.603882 221.199371,478.071991 
	C230.764908,426.843170 249.234680,378.958679 278.926697,335.814392 
	C300.176880,304.936646 325.606903,278.382141 360.081116,262.168457 
	C403.370148,241.809067 445.049591,245.268066 484.239319,272.800934 
	C514.557617,294.101227 534.495056,323.797760 549.728882,356.928284 
	C554.444092,367.182892 557.942017,377.992859 562.541443,388.305847 
	C573.110291,412.004028 603.444458,419.553833 623.541443,403.722626 
	C637.831848,392.465485 644.128540,371.255676 637.748962,352.552521 
	C624.230225,312.919159 605.709229,275.863403 579.287720,243.084213 
	C556.628540,214.972672 529.869995,191.845383 497.102448,176.167450 
	C461.073090,158.928848 423.250702,153.382278 383.830872,159.733612 
	C373.580048,161.385208 363.521088,164.227463 353.475647,166.499863 
	C353.475647,168.011978 353.427277,168.504364 353.482544,168.984863 
	C358.602020,213.506210 313.326172,249.753281 269.407471,231.159134 
	C265.690369,229.585388 261.471069,226.083038 258.402130,226.904129 
	C254.799698,227.867996 252.200302,232.580734 248.662506,236.170334 
M436.387878,352.119171 
	C435.664886,351.430511 434.963623,350.717224 434.215729,350.056763 
	C417.627502,335.407654 393.070770,334.393860 375.338562,347.619690 
	C357.482666,360.937744 351.631439,384.996063 361.310211,405.299408 
	C370.656097,424.904449 392.877167,435.317230 414.298889,430.129761 
	C449.130188,421.695068 461.385345,379.618225 436.387878,352.119171 
M308.962372,134.431427 
	C302.272339,133.567245 295.515198,131.621460 288.904236,132.031631 
	C264.161316,133.566788 246.398697,156.431458 249.804504,181.467926 
	C253.143494,206.013229 276.604401,223.091446 300.662231,218.489456 
	C320.439758,214.706223 334.597687,199.537643 336.784454,179.788574 
	C338.892792,160.748230 328.077240,142.786560 308.962372,134.431427 
z"/>
<path fill="#FEFEFF" opacity="1.000000" stroke="none" 
	d="
M248.914185,235.918945 
	C252.200302,232.580734 254.799698,227.867996 258.402130,226.904129 
	C261.471069,226.083038 265.690369,229.585388 269.407471,231.159134 
	C313.326172,249.753281 358.602020,213.506210 353.482544,168.984863 
	C353.427277,168.504364 353.475647,168.011978 353.475647,166.499863 
	C363.521088,164.227463 373.580048,161.385208 383.830872,159.733612 
	C423.250702,153.382278 461.073090,158.928848 497.102448,176.167450 
	C529.869995,191.845383 556.628540,214.972672 579.287720,243.084213 
	C605.709229,275.863403 624.230225,312.919159 637.748962,352.552521 
	C644.128540,371.255676 637.831848,392.465485 623.541443,403.722626 
	C603.444458,419.553833 573.110291,412.004028 562.541443,388.305847 
	C557.942017,377.992859 554.444092,367.182892 549.728882,356.928284 
	C534.495056,323.797760 514.557617,294.101227 484.239319,272.800934 
	C445.049591,245.268066 403.370148,241.809067 360.081116,262.168457 
	C325.606903,278.382141 300.176880,304.936646 278.926697,335.814392 
	C249.234680,378.958679 230.764908,426.843170 221.199371,478.071991 
	C217.178864,499.603882 215.330017,521.559448 212.944656,543.371643 
	C211.523987,556.362610 208.026443,568.287476 197.996887,577.197937 
	C174.811356,597.796509 138.681290,585.575012 132.189499,554.688782 
	C130.576324,547.013794 130.767731,538.770874 131.292191,530.866150 
	C134.334076,485.018646 142.520691,440.103180 156.909302,396.407593 
	C176.555939,336.744324 205.489609,282.374298 248.914185,235.918945 
z"/>
<path fill="#FDFEFE" opacity="1.000000" stroke="none" 
	d="
M436.628174,352.379181 
	C461.385345,379.618225 449.130188,421.695068 414.298889,430.129761 
	C392.877167,435.317230 370.656097,424.904449 361.310211,405.299408 
	C351.631439,384.996063 357.482666,360.937744 375.338562,347.619690 
	C393.070770,334.393860 417.627502,335.407654 434.215729,350.056763 
	C434.963623,350.717224 435.664886,351.430511 436.628174,352.379181 
z"/>
<path fill="#FDFEFE" opacity="1.000000" stroke="none" 
	d="
M309.314880,134.592926 
	C328.077240,142.786560 338.892792,160.748230 336.784454,179.788574 
	C334.597687,199.537643 320.439758,214.706223 300.662231,218.489456 
	C276.604401,223.091446 253.143494,206.013229 249.804504,181.467926 
	C246.398697,156.431458 264.161316,133.566788 288.904236,132.031631 
	C295.515198,131.621460 302.272339,133.567245 309.314880,134.592926 
z"/>
</svg>