<?xml version="1.0" encoding="UTF-8"?>
<svg id="Layer_2" data-name="Layer 2" xmlns="http://www.w3.org/2000/svg" viewBox="0 0 448.85 128.05">
  <defs>
    <style>
      .cls-1 {
        fill: #8151a1;
      }

      .cls-2 {
        fill: #047c91;
      }
    </style>
  </defs>
  <g id="Layer_1-2" data-name="Layer 1">
    <g>
      <g>
        <path class="cls-1" d="M238.76,64.27c-9.71-28.33-29.69-46.3-53.16-46.31h0c-4.91,0-9.76.79-14.48,2.33.09.65.15,1.3.15,1.97,0,8.02-6.51,14.53-14.53,14.53-3.01,0-5.81-.92-8.13-2.49-3.44,3.32-6.7,7.11-9.75,11.36-12.17,16.99-19.55,39.46-20.78,63.25,0,.15-.01.29-.02.44-.3,6.15,4.26,11.22,9.74,10.96l.79-.04c4.85-.23,8.68-4.58,8.95-10.01,0-.03,0-.06,0-.1.98-19.29,6.85-37.33,16.51-50.81,9.02-12.59,20.23-19.53,31.54-19.53h0c15.04,0,28.09,12.43,34.9,32.13,1.38,4,4.86,6.58,8.68,6.58h.84c6.57,0,11.09-7.4,8.74-14.27Z"/>
        <circle class="cls-1" cx="156.73" cy="22.26" r="10.41"/>
      </g>
      <g>
        <circle class="cls-2" cx="182.96" cy="72.18" r="11.07"/>
        <path class="cls-2" d="M11.3,127.7c-3.65,0-6.45-1.03-8.39-3.09-1.94-2.06-2.91-4.92-2.91-8.57V12.01c0-3.77.97-6.65,2.91-8.65C4.86,1.36,7.65.35,11.3.35s6.45,1,8.39,3c1.94,2,2.91,4.89,2.91,8.65v41.68h64.11V12.01c0-3.77.97-6.65,2.91-8.65,1.94-2,4.74-3,8.39-3s6.45,1,8.39,3c1.94,2,2.91,4.89,2.91,8.65v104.03c0,3.65-.97,6.51-2.91,8.57s-4.74,3.09-8.39,3.09-6.45-1.03-8.39-3.09c-1.94-2.06-2.91-4.92-2.91-8.57v-43.45H22.61v43.45c0,3.65-.94,6.51-2.83,8.57-1.88,2.06-4.71,3.09-8.48,3.09Z"/>
        <path class="cls-2" d="M259.4,126.99c-3.65,0-6.45-1.03-8.39-3.09s-2.91-4.92-2.91-8.57V12.54c0-3.77,1-6.62,3-8.57,2-1.94,4.83-2.91,8.48-2.91h42.57c13.66,0,24.2,3.42,31.62,10.24,7.42,6.83,11.13,16.37,11.13,28.61s-3.71,21.81-11.13,28.7c-7.42,6.89-17.96,10.33-31.62,10.33h-31.44v36.38c0,3.65-.94,6.51-2.83,8.57-1.89,2.06-4.71,3.09-8.48,3.09ZM270.71,61.11h27.91c8.01,0,14.07-1.79,18.19-5.39,4.12-3.59,6.18-8.86,6.18-15.81s-2.06-12.19-6.18-15.72c-4.12-3.53-10.19-5.3-18.19-5.3h-27.91v42.21Z"/>
        <path class="cls-2" d="M399.75,128.05c-5.18,0-10.36-.38-15.54-1.15-5.18-.76-10.07-1.94-14.66-3.53-4.59-1.59-8.72-3.56-12.36-5.92-2.12-1.41-3.59-3.12-4.42-5.12-.83-2-1.09-3.97-.8-5.92.29-1.94,1.06-3.65,2.3-5.12,1.24-1.47,2.8-2.38,4.68-2.74,1.88-.35,3.94.18,6.18,1.59,5.18,3.06,10.66,5.3,16.43,6.71,5.77,1.41,11.83,2.12,18.19,2.12,9.3,0,16.07-1.56,20.31-4.68,4.24-3.12,6.36-7.15,6.36-12.1,0-4.12-1.5-7.36-4.5-9.71-3-2.35-8.15-4.3-15.45-5.83l-19.43-4.06c-11.19-2.35-19.52-6.33-24.99-11.92-5.48-5.59-8.21-12.98-8.21-22.17,0-5.77,1.18-11.01,3.53-15.72,2.35-4.71,5.68-8.77,9.98-12.19,4.3-3.41,9.42-6.03,15.37-7.86,5.95-1.82,12.51-2.74,19.69-2.74s13.78.88,20.13,2.65c6.36,1.77,12.07,4.36,17.13,7.77,1.88,1.3,3.15,2.89,3.8,4.77.65,1.89.79,3.74.44,5.56-.35,1.83-1.18,3.39-2.47,4.68-1.3,1.3-2.91,2.06-4.86,2.3-1.94.24-4.15-.35-6.62-1.77-4.36-2.47-8.77-4.24-13.25-5.3-4.48-1.06-9.3-1.59-14.48-1.59s-10.07.77-13.95,2.3c-3.89,1.53-6.86,3.68-8.92,6.45-2.06,2.77-3.09,6.04-3.09,9.8,0,4.24,1.41,7.62,4.24,10.16,2.83,2.53,7.65,4.5,14.48,5.92l19.25,4.06c11.66,2.47,20.34,6.36,26.05,11.66,5.71,5.3,8.57,12.36,8.57,21.19,0,5.65-1.15,10.77-3.44,15.37s-5.59,8.54-9.89,11.83c-4.3,3.3-9.45,5.83-15.45,7.59-6,1.77-12.78,2.65-20.31,2.65Z"/>
      </g>
    </g>
  </g>
</svg>